<?xml version="1.0" encoding="UTF-8"?><svg id="Layer_1" xmlns="http://www.w3.org/2000/svg" viewBox="0 0 700 500"><defs><style>.cls-1{font-size:72.21px;letter-spacing:.05em;stroke-width:1.91px;}.cls-1,.cls-2{font-family:Gabriola, Gabriola;stroke:#b8d3ff;stroke-miterlimit:10;}.cls-1,.cls-2,.cls-3{fill:#b8d3ff;}.cls-4{letter-spacing:.05em;}.cls-5{letter-spacing:.04em;}.cls-2{font-size:30px;stroke-width:.64px;}.cls-6{fill:#437ba8;}.cls-7{letter-spacing:.05em;}</style></defs><g><path class="cls-6" d="M200.46,245.77c-9.44-4.56-21.04-8.19-31.3-6.18-7.74,1.51-14.58,8.59-11.23,16.23,2.7,5.01,9.41,5.53,14.83,5.61,16.39,.22,32.32-6.19,44.97-16.67-3.17,4.81-7.24,9.03-11.85,12.53-4.68,3.49-9.9,6.37-15.49,8.33-13.39,4.76-38.54,7.53-41.09-11.73-1.11-11.04,8.57-19.59,18.88-20.5,12.05-1.02,23.79,4.55,32.28,12.37h0Z"/><path class="cls-3" d="M122.32,282.43c-8.58,4.15-14.74,14.42-11.51,23.67,1.57,4.26,5.04,7.88,8.96,10.06,4,2.08,8.65,2.02,12.98,.79,18.51-5.66,26.09-27.45,31.32-44.31,9.37-31.55,14.04-64.45,13.82-97.36v-.76c.1,.44-.33-.26,.65-2.65,2.06-3.68,7.08-3.77,9.32-.32,1.08,2.23,.55,1.47,.7,1.68l.04,.15,.08,.3c1.03,3.94,3.1,12.17,4.12,16.23,10.14,40.96,17.9,82.53,23.3,124.37l.04,.31,.02,.15c.36,1.02-.71-3.74-3.15-4.22-5.03-2.11-7.98,2.82-7.76,4.91,0-.13,0-1.38,0-1.55,.17-28.33,.5-57.25,8.39-84.71,5.46-18.03,13.26-36.89,29.47-47.89,11.82-8.03,28.67-10.58,41.09-2.36,6.14,3.95,10.89,10.07,12.64,17.21,4.95,18.72-17.77,38.1-32.95,22.35-4.55-4.91-6.74-12.68-3.31-18.71-3.99,9.09,3.39,20.08,12.68,21.63,12.37,1.82,22.58-12.59,18.74-23.97-2.64-8.4-10.64-14.91-19.18-16.32-11.87-2.06-24.04,3.93-31.9,12.72-7.33,7.99-11.87,18.43-15.18,28.74-8.7,26.18-9.27,54.08-9.32,81.47l.02,9.86v1.54c-.1-.79,.54,1.36-1.49,3.92-1.93,1.97-4.34,2.31-6.61,1.34-2.54-.52-3.64-5.39-3.29-4.47l-.02-.15c-.23-1.59-.84-5.94-1.09-7.61-5.52-38.98-12.8-77.68-21.67-116.04-.92-3.98-2.86-12.23-3.81-16.18l-.07-.3-.04-.15c.12,.1-.42-.76,.61,1.38,2.13,3.27,6.84,3.18,8.81-.3,.93-2.3,.52-2.89,.61-2.35v.78c-.41,33.83-6.3,67.61-17.24,99.6-5.69,15.71-12.69,33.1-27.52,42.33-7.53,4.52-17.68,6.74-25.63,1.96-7.41-4.64-12.38-14.13-9.24-22.69,2.15-6.41,7.24-11.76,13.54-14.07h0Z"/><path class="cls-6" d="M200.46,245.77c-12.7-5.24-32.34-12.22-42.96-.49-3.21,3.79-4.2,9.36-2.01,14.13-2.17-1.82-3.4-4.76-3.67-7.75-.93-9.72,8.51-17.26,17.55-18.04,11.57-1.06,23.24,4.09,31.09,12.14h0Z"/></g><text class="cls-1" transform="translate(228.86 276.98)"><tspan x="0" y="0" xml:space="preserve"> DESIGN HUB</tspan></text><text class="cls-2" transform="translate(394.01 304.48)"><tspan class="cls-4" x="0" y="0">c</tspan><tspan class="cls-5" x="10.67" y="0">r</tspan><tspan class="cls-4" x="20.72" y="0">ea</tspan><tspan class="cls-7" x="43.7" y="0">t</tspan><tspan class="cls-4" x="52.32" y="0">e and inspi</tspan><tspan class="cls-5" x="170.31" y="0">r</tspan><tspan class="cls-4" x="180.36" y="0">e</tspan></text></svg>